<mxfile host="app.diagrams.net" modified="2024-05-09T08:45:24.669Z" agent="Mozilla/5.0 (Windows NT 10.0; Win64; x64) AppleWebKit/537.36 (KHTML, like Gecko) Chrome/124.0.0.0 Safari/537.36" etag="1NxVDIZt-qjX0o-gteNW" version="24.3.1" type="google">
  <diagram name="Page-1" id="UvFftwQ7RrltCVslt714">
    <mxGraphModel grid="1" page="1" gridSize="10" guides="1" tooltips="1" connect="1" arrows="1" fold="1" pageScale="1" pageWidth="827" pageHeight="1169" math="0" shadow="0">
      <root>
        <mxCell id="0" />
        <mxCell id="1" parent="0" />
        <mxCell id="53Vg5XUb1VYoRWrDqse6-1" style="edgeStyle=orthogonalEdgeStyle;rounded=0;orthogonalLoop=1;jettySize=auto;html=1;exitX=0.5;exitY=1;exitDx=0;exitDy=0;entryX=0.5;entryY=0;entryDx=0;entryDy=0;" edge="1" parent="1" source="QkNuOBEh87EhFsAhZ7_z-1" target="QkNuOBEh87EhFsAhZ7_z-17">
          <mxGeometry relative="1" as="geometry" />
        </mxCell>
        <mxCell id="53Vg5XUb1VYoRWrDqse6-3" style="edgeStyle=orthogonalEdgeStyle;rounded=0;orthogonalLoop=1;jettySize=auto;html=1;exitX=0.5;exitY=1;exitDx=0;exitDy=0;" edge="1" parent="1" source="QkNuOBEh87EhFsAhZ7_z-1" target="QkNuOBEh87EhFsAhZ7_z-19">
          <mxGeometry relative="1" as="geometry" />
        </mxCell>
        <mxCell id="53Vg5XUb1VYoRWrDqse6-5" style="edgeStyle=orthogonalEdgeStyle;rounded=0;orthogonalLoop=1;jettySize=auto;html=1;exitX=0.5;exitY=1;exitDx=0;exitDy=0;entryX=0.5;entryY=0;entryDx=0;entryDy=0;" edge="1" parent="1" source="QkNuOBEh87EhFsAhZ7_z-1" target="QkNuOBEh87EhFsAhZ7_z-18">
          <mxGeometry relative="1" as="geometry" />
        </mxCell>
        <mxCell id="QkNuOBEh87EhFsAhZ7_z-1" value="Bar" style="rounded=0;whiteSpace=wrap;html=1;" vertex="1" parent="1">
          <mxGeometry x="280" y="70" width="230" height="90" as="geometry" />
        </mxCell>
        <mxCell id="QkNuOBEh87EhFsAhZ7_z-5" value="" style="edgeStyle=orthogonalEdgeStyle;rounded=0;orthogonalLoop=1;jettySize=auto;html=1;" edge="1" parent="1" source="QkNuOBEh87EhFsAhZ7_z-2" target="QkNuOBEh87EhFsAhZ7_z-4">
          <mxGeometry relative="1" as="geometry" />
        </mxCell>
        <mxCell id="QkNuOBEh87EhFsAhZ7_z-2" value="&lt;b&gt;Bartender&lt;/b&gt;" style="rounded=0;whiteSpace=wrap;html=1;" vertex="1" parent="1">
          <mxGeometry x="80" y="310" width="140" height="50" as="geometry" />
        </mxCell>
        <mxCell id="QkNuOBEh87EhFsAhZ7_z-9" value="" style="edgeStyle=orthogonalEdgeStyle;rounded=0;orthogonalLoop=1;jettySize=auto;html=1;" edge="1" parent="1" source="QkNuOBEh87EhFsAhZ7_z-4" target="QkNuOBEh87EhFsAhZ7_z-8">
          <mxGeometry relative="1" as="geometry" />
        </mxCell>
        <mxCell id="QkNuOBEh87EhFsAhZ7_z-4" value="Maintains the bar" style="rounded=0;whiteSpace=wrap;html=1;" vertex="1" parent="1">
          <mxGeometry x="80" y="400" width="140" height="50" as="geometry" />
        </mxCell>
        <mxCell id="53Vg5XUb1VYoRWrDqse6-20" value="" style="edgeStyle=orthogonalEdgeStyle;rounded=0;orthogonalLoop=1;jettySize=auto;html=1;" edge="1" parent="1" source="QkNuOBEh87EhFsAhZ7_z-8" target="53Vg5XUb1VYoRWrDqse6-19">
          <mxGeometry relative="1" as="geometry" />
        </mxCell>
        <mxCell id="QkNuOBEh87EhFsAhZ7_z-8" value="Receives Order" style="rounded=0;whiteSpace=wrap;html=1;" vertex="1" parent="1">
          <mxGeometry x="80" y="490" width="140" height="50" as="geometry" />
        </mxCell>
        <mxCell id="QkNuOBEh87EhFsAhZ7_z-20" style="edgeStyle=orthogonalEdgeStyle;rounded=0;orthogonalLoop=1;jettySize=auto;html=1;exitX=0.5;exitY=1;exitDx=0;exitDy=0;" edge="1" parent="1" source="QkNuOBEh87EhFsAhZ7_z-17" target="QkNuOBEh87EhFsAhZ7_z-2">
          <mxGeometry relative="1" as="geometry" />
        </mxCell>
        <mxCell id="QkNuOBEh87EhFsAhZ7_z-17" value="Order System" style="rounded=1;whiteSpace=wrap;html=1;" vertex="1" parent="1">
          <mxGeometry x="60" y="240" width="180" height="30" as="geometry" />
        </mxCell>
        <mxCell id="53Vg5XUb1VYoRWrDqse6-6" style="edgeStyle=orthogonalEdgeStyle;rounded=0;orthogonalLoop=1;jettySize=auto;html=1;exitX=0.5;exitY=1;exitDx=0;exitDy=0;entryX=0.5;entryY=0;entryDx=0;entryDy=0;" edge="1" parent="1" source="QkNuOBEh87EhFsAhZ7_z-18" target="QkNuOBEh87EhFsAhZ7_z-21">
          <mxGeometry relative="1" as="geometry" />
        </mxCell>
        <mxCell id="QkNuOBEh87EhFsAhZ7_z-18" value="Mise en place" style="rounded=1;whiteSpace=wrap;html=1;" vertex="1" parent="1">
          <mxGeometry x="305" y="240" width="180" height="30" as="geometry" />
        </mxCell>
        <mxCell id="53Vg5XUb1VYoRWrDqse6-18" style="edgeStyle=orthogonalEdgeStyle;rounded=0;orthogonalLoop=1;jettySize=auto;html=1;exitX=0.5;exitY=1;exitDx=0;exitDy=0;entryX=0.5;entryY=0;entryDx=0;entryDy=0;" edge="1" parent="1" source="QkNuOBEh87EhFsAhZ7_z-19" target="53Vg5XUb1VYoRWrDqse6-17">
          <mxGeometry relative="1" as="geometry" />
        </mxCell>
        <mxCell id="QkNuOBEh87EhFsAhZ7_z-19" value="Stock Management" style="rounded=1;whiteSpace=wrap;html=1;" vertex="1" parent="1">
          <mxGeometry x="530" y="240" width="180" height="30" as="geometry" />
        </mxCell>
        <mxCell id="53Vg5XUb1VYoRWrDqse6-8" value="" style="edgeStyle=orthogonalEdgeStyle;rounded=0;orthogonalLoop=1;jettySize=auto;html=1;" edge="1" parent="1" source="QkNuOBEh87EhFsAhZ7_z-21" target="53Vg5XUb1VYoRWrDqse6-7">
          <mxGeometry relative="1" as="geometry" />
        </mxCell>
        <mxCell id="QkNuOBEh87EhFsAhZ7_z-21" value="&lt;b&gt;Bartender&lt;/b&gt;" style="rounded=0;whiteSpace=wrap;html=1;" vertex="1" parent="1">
          <mxGeometry x="325" y="310" width="140" height="50" as="geometry" />
        </mxCell>
        <mxCell id="53Vg5XUb1VYoRWrDqse6-10" value="" style="edgeStyle=orthogonalEdgeStyle;rounded=0;orthogonalLoop=1;jettySize=auto;html=1;" edge="1" parent="1" source="53Vg5XUb1VYoRWrDqse6-7" target="53Vg5XUb1VYoRWrDqse6-9">
          <mxGeometry relative="1" as="geometry" />
        </mxCell>
        <mxCell id="53Vg5XUb1VYoRWrDqse6-7" value="Slices lemons" style="rounded=0;whiteSpace=wrap;html=1;" vertex="1" parent="1">
          <mxGeometry x="325" y="400" width="140" height="50" as="geometry" />
        </mxCell>
        <mxCell id="53Vg5XUb1VYoRWrDqse6-12" value="" style="edgeStyle=orthogonalEdgeStyle;rounded=0;orthogonalLoop=1;jettySize=auto;html=1;" edge="1" parent="1" source="53Vg5XUb1VYoRWrDqse6-9" target="53Vg5XUb1VYoRWrDqse6-11">
          <mxGeometry relative="1" as="geometry" />
        </mxCell>
        <mxCell id="53Vg5XUb1VYoRWrDqse6-9" value="Checks ice bins" style="rounded=0;whiteSpace=wrap;html=1;" vertex="1" parent="1">
          <mxGeometry x="325" y="490" width="140" height="50" as="geometry" />
        </mxCell>
        <mxCell id="53Vg5XUb1VYoRWrDqse6-37" value="" style="edgeStyle=orthogonalEdgeStyle;rounded=0;orthogonalLoop=1;jettySize=auto;html=1;" edge="1" parent="1" source="53Vg5XUb1VYoRWrDqse6-11" target="53Vg5XUb1VYoRWrDqse6-36">
          <mxGeometry relative="1" as="geometry" />
        </mxCell>
        <mxCell id="53Vg5XUb1VYoRWrDqse6-11" value="Check Liquor Bottles" style="rounded=0;whiteSpace=wrap;html=1;" vertex="1" parent="1">
          <mxGeometry x="325" y="580" width="140" height="50" as="geometry" />
        </mxCell>
        <mxCell id="53Vg5XUb1VYoRWrDqse6-23" value="" style="edgeStyle=orthogonalEdgeStyle;rounded=0;orthogonalLoop=1;jettySize=auto;html=1;" edge="1" parent="1" source="53Vg5XUb1VYoRWrDqse6-17" target="53Vg5XUb1VYoRWrDqse6-22">
          <mxGeometry relative="1" as="geometry" />
        </mxCell>
        <mxCell id="53Vg5XUb1VYoRWrDqse6-17" value="Checks stock" style="rounded=0;whiteSpace=wrap;html=1;" vertex="1" parent="1">
          <mxGeometry x="550" y="310" width="140" height="50" as="geometry" />
        </mxCell>
        <mxCell id="53Vg5XUb1VYoRWrDqse6-33" value="" style="edgeStyle=orthogonalEdgeStyle;rounded=0;orthogonalLoop=1;jettySize=auto;html=1;" edge="1" parent="1" source="53Vg5XUb1VYoRWrDqse6-19" target="53Vg5XUb1VYoRWrDqse6-32">
          <mxGeometry relative="1" as="geometry" />
        </mxCell>
        <mxCell id="53Vg5XUb1VYoRWrDqse6-19" value="Serves drinks" style="whiteSpace=wrap;html=1;rounded=0;" vertex="1" parent="1">
          <mxGeometry x="80" y="580" width="140" height="50" as="geometry" />
        </mxCell>
        <mxCell id="53Vg5XUb1VYoRWrDqse6-25" value="" style="edgeStyle=orthogonalEdgeStyle;rounded=0;orthogonalLoop=1;jettySize=auto;html=1;" edge="1" parent="1" source="53Vg5XUb1VYoRWrDqse6-22" target="53Vg5XUb1VYoRWrDqse6-24">
          <mxGeometry relative="1" as="geometry" />
        </mxCell>
        <mxCell id="53Vg5XUb1VYoRWrDqse6-22" value="Places orders if necessary" style="rounded=0;whiteSpace=wrap;html=1;" vertex="1" parent="1">
          <mxGeometry x="550" y="400" width="140" height="50" as="geometry" />
        </mxCell>
        <mxCell id="53Vg5XUb1VYoRWrDqse6-27" value="" style="edgeStyle=orthogonalEdgeStyle;rounded=0;orthogonalLoop=1;jettySize=auto;html=1;" edge="1" parent="1" source="53Vg5XUb1VYoRWrDqse6-24" target="53Vg5XUb1VYoRWrDqse6-26">
          <mxGeometry relative="1" as="geometry" />
        </mxCell>
        <mxCell id="53Vg5XUb1VYoRWrDqse6-24" value="Once orders arrive, Bartender checks them by quantity &amp;amp; quality" style="rounded=0;whiteSpace=wrap;html=1;" vertex="1" parent="1">
          <mxGeometry x="550" y="490" width="140" height="50" as="geometry" />
        </mxCell>
        <mxCell id="53Vg5XUb1VYoRWrDqse6-29" value="" style="edgeStyle=orthogonalEdgeStyle;rounded=0;orthogonalLoop=1;jettySize=auto;html=1;" edge="1" parent="1" source="53Vg5XUb1VYoRWrDqse6-26" target="53Vg5XUb1VYoRWrDqse6-28">
          <mxGeometry relative="1" as="geometry" />
        </mxCell>
        <mxCell id="53Vg5XUb1VYoRWrDqse6-26" value="Fills out sheet at end of shift to show what remains of stock" style="rounded=0;whiteSpace=wrap;html=1;" vertex="1" parent="1">
          <mxGeometry x="550" y="580" width="140" height="50" as="geometry" />
        </mxCell>
        <mxCell id="53Vg5XUb1VYoRWrDqse6-31" value="" style="edgeStyle=orthogonalEdgeStyle;rounded=0;orthogonalLoop=1;jettySize=auto;html=1;" edge="1" parent="1" source="53Vg5XUb1VYoRWrDqse6-28" target="53Vg5XUb1VYoRWrDqse6-30">
          <mxGeometry relative="1" as="geometry" />
        </mxCell>
        <mxCell id="53Vg5XUb1VYoRWrDqse6-28" value="Checks what opened &amp;amp; how full they are" style="rounded=0;whiteSpace=wrap;html=1;" vertex="1" parent="1">
          <mxGeometry x="550" y="670" width="140" height="50" as="geometry" />
        </mxCell>
        <mxCell id="53Vg5XUb1VYoRWrDqse6-30" value="At next shift, checks inventory again" style="rounded=0;whiteSpace=wrap;html=1;" vertex="1" parent="1">
          <mxGeometry x="550" y="760" width="140" height="50" as="geometry" />
        </mxCell>
        <mxCell id="53Vg5XUb1VYoRWrDqse6-35" value="" style="edgeStyle=orthogonalEdgeStyle;rounded=0;orthogonalLoop=1;jettySize=auto;html=1;" edge="1" parent="1" source="53Vg5XUb1VYoRWrDqse6-32" target="53Vg5XUb1VYoRWrDqse6-34">
          <mxGeometry relative="1" as="geometry" />
        </mxCell>
        <mxCell id="53Vg5XUb1VYoRWrDqse6-32" value="Cleans the bar" style="whiteSpace=wrap;html=1;rounded=0;" vertex="1" parent="1">
          <mxGeometry x="80" y="670" width="140" height="50" as="geometry" />
        </mxCell>
        <mxCell id="53Vg5XUb1VYoRWrDqse6-34" value="Refills Bar stock" style="whiteSpace=wrap;html=1;rounded=0;" vertex="1" parent="1">
          <mxGeometry x="80" y="760" width="140" height="50" as="geometry" />
        </mxCell>
        <mxCell id="53Vg5XUb1VYoRWrDqse6-36" value="Makes sure bottles are on hand" style="rounded=0;whiteSpace=wrap;html=1;" vertex="1" parent="1">
          <mxGeometry x="325" y="670" width="140" height="50" as="geometry" />
        </mxCell>
      </root>
    </mxGraphModel>
  </diagram>
</mxfile>
